<svg width="1200" height="630" viewBox="0 0 1200 630" fill="none" xmlns="http://www.w3.org/2000/svg">
  <rect width="1200" height="630" rx="32" fill="#07111F"/>
  <rect width="1200" height="630" rx="32" fill="url(#paint0_radial)" fill-opacity="0.9"/>
  <rect width="1200" height="630" rx="32" fill="url(#paint1_radial)" fill-opacity="0.9"/>
  <path d="M88 92H1112" stroke="rgba(255,255,255,0.08)"/>
  <g opacity="0.14">
    <path d="M0 126H1200" stroke="#E2E8F0"/>
    <path d="M0 246H1200" stroke="#E2E8F0"/>
    <path d="M0 366H1200" stroke="#E2E8F0"/>
    <path d="M0 486H1200" stroke="#E2E8F0"/>
    <path d="M240 0V630" stroke="#E2E8F0"/>
    <path d="M480 0V630" stroke="#E2E8F0"/>
    <path d="M720 0V630" stroke="#E2E8F0"/>
    <path d="M960 0V630" stroke="#E2E8F0"/>
  </g>
  <rect x="84" y="92" width="462" height="446" rx="28" fill="rgba(255,255,255,0.05)" stroke="rgba(255,255,255,0.08)"/>
  <rect x="618" y="128" width="494" height="120" rx="28" fill="rgba(255,255,255,0.05)" stroke="rgba(255,255,255,0.08)"/>
  <rect x="618" y="276" width="494" height="120" rx="28" fill="rgba(255,255,255,0.05)" stroke="rgba(255,255,255,0.08)"/>
  <rect x="618" y="424" width="494" height="120" rx="28" fill="rgba(255,255,255,0.05)" stroke="rgba(255,255,255,0.08)"/>
  <circle cx="160" cy="164" r="10" fill="#22D3EE"/>
  <circle cx="196" cy="164" r="10" fill="#10B981"/>
  <text x="130" y="240" fill="white" font-size="78" font-weight="700" font-family="Space Grotesk, Avenir Next, sans-serif">AutomIQ</text>
  <text x="130" y="302" fill="#C7D2FE" font-size="28" font-weight="500" font-family="Manrope, Inter, sans-serif">AI systems for real operations</text>
  <text x="130" y="376" fill="#E2E8F0" font-size="30" font-weight="500" font-family="Manrope, Inter, sans-serif">Agents, automation, copilots, and</text>
  <text x="130" y="420" fill="#E2E8F0" font-size="30" font-weight="500" font-family="Manrope, Inter, sans-serif">intelligent apps for modern operations.</text>
  <text x="130" y="490" fill="#67E8F9" font-size="24" font-weight="600" font-family="Manrope, Inter, sans-serif">Operational AI</text>
  <text x="678" y="190" fill="#67E8F9" font-size="18" font-weight="700" font-family="Manrope, Inter, sans-serif">AGENTS</text>
  <text x="678" y="224" fill="white" font-size="28" font-weight="600" font-family="Space Grotesk, Avenir Next, sans-serif">Customer and internal copilots</text>
  <text x="678" y="338" fill="#6EE7B7" font-size="18" font-weight="700" font-family="Manrope, Inter, sans-serif">AUTOMATION</text>
  <text x="678" y="372" fill="white" font-size="28" font-weight="600" font-family="Space Grotesk, Avenir Next, sans-serif">Workflows, approvals, and integrations</text>
  <text x="678" y="486" fill="#A5F3FC" font-size="18" font-weight="700" font-family="Manrope, Inter, sans-serif">INTERFACES</text>
  <text x="678" y="520" fill="white" font-size="28" font-weight="600" font-family="Space Grotesk, Avenir Next, sans-serif">Dashboards and portals teams actually use</text>
  <defs>
    <radialGradient id="paint0_radial" cx="0" cy="0" r="1" gradientUnits="userSpaceOnUse" gradientTransform="translate(141 36) rotate(34.574) scale(573.02 594.896)">
      <stop stop-color="#22D3EE" stop-opacity="0.34"/>
      <stop offset="1" stop-color="#22D3EE" stop-opacity="0"/>
    </radialGradient>
    <radialGradient id="paint1_radial" cx="0" cy="0" r="1" gradientUnits="userSpaceOnUse" gradientTransform="translate(1033 594) rotate(-133.831) scale(483.27 459.163)">
      <stop stop-color="#10B981" stop-opacity="0.28"/>
      <stop offset="1" stop-color="#10B981" stop-opacity="0"/>
    </radialGradient>
  </defs>
</svg>
